<?xml version="1.0" encoding="UTF-8" standalone="no"?>
<!-- Created with Inkscape (http://www.inkscape.org/) -->

<svg
   xmlns:dc="http://purl.org/dc/elements/1.1/"
   xmlns:cc="http://creativecommons.org/ns#"
   xmlns:rdf="http://www.w3.org/1999/02/22-rdf-syntax-ns#"
   xmlns:svg="http://www.w3.org/2000/svg"
   xmlns="http://www.w3.org/2000/svg"
   xmlns:sodipodi="http://sodipodi.sourceforge.net/DTD/sodipodi-0.dtd"
   xmlns:inkscape="http://www.inkscape.org/namespaces/inkscape"
   width="20"
   height="20"
   viewBox="0 0 20 19.999999"
   id="svg6265"
   version="1.1"
   inkscape:version="0.91 r13725"
   sodipodi:docname="arch-logo.svg">
  <defs
     id="defs6267" />
  <sodipodi:namedview
     id="base"
     pagecolor="#ffffff"
     bordercolor="#666666"
     borderopacity="1.0"
     inkscape:pageopacity="0.0"
     inkscape:pageshadow="2"
     inkscape:zoom="14.021505"
     inkscape:cx="7.924235"
     inkscape:cy="18.133643"
     inkscape:document-units="px"
     inkscape:current-layer="layer1"
     showgrid="false"
     fit-margin-top="0"
     fit-margin-left="0"
     fit-margin-right="0"
     fit-margin-bottom="0"
     inkscape:window-width="380"
     inkscape:window-height="1152"
     inkscape:window-x="384"
     inkscape:window-y="20"
     inkscape:window-maximized="0"
     units="px" />
  <metadata
     id="metadata6270">
    <rdf:RDF>
      <cc:Work
         rdf:about="">
        <dc:format>image/svg+xml</dc:format>
        <dc:type
           rdf:resource="http://purl.org/dc/dcmitype/StillImage" />
        <dc:title></dc:title>
      </cc:Work>
    </rdf:RDF>
  </metadata>
  <g
     inkscape:label="Layer 1"
     inkscape:groupmode="layer"
     id="layer1"
     transform="translate(-233.44323,-687.18509)">
    <path
       inkscape:connector-curvature="0"
       id="arch-logo"
       d="m 243.53082,688.07849 c 0,0 -1.16704,2.2051 -2.20966,4.1756 l 0.3572,0.6808 7.8e-4,0 -3.9e-4,0 -1.9579,3.7309 -0.53064,0.1559 -2.79722,5.3297 -0.33429,0.098 c -1.19284,2.2876 -2.0718,3.9995 -2.02781,3.9995 -0.0208,0 0.143,-0.053 0.41679,-0.1371 0.43559,-0.8219 0.96638,-1.8233 1.02652,-1.9366 l 0.26054,-0.077 c -0.0165,0.031 -0.5691,1.073 -1.02537,1.9338 0.11875,-0.036 0.29304,-0.088 0.43895,-0.1318 0.11291,-0.2128 0.44613,-0.8414 0.46914,-0.8848 l 0.26092,-0.077 c -0.002,0 -0.35968,0.6788 -0.46798,0.8829 0.14708,-0.044 0.23767,-0.072 0.40266,-0.1211 0.62915,-1.1875 1.20231,-2.2685 1.27636,-2.4079 l 0.26016,-0.077 c -0.0198,0.037 -0.60745,1.1453 -1.27636,2.4079 0.83056,-0.2467 1.86621,-0.5513 2.87401,-0.8477 l 0.10391,-0.1551 0.20209,-0.3026 0.89586,-1.3405 0.27812,0 -0.84963,1.271 0.54706,-0.1609 0.79692,-1.1923 0.005,0 0.20629,-0.309 c -1.22749,-0.9383 -1.75529,-2.5468 -1.29928,-4.0392 0.47783,-1.5638 1.92191,-2.6326 3.55708,-2.6326 l 0,0.1792 c -1.55706,0 -2.93055,1.0166 -3.38555,2.5057 -0.43312,1.4175 0.0651,2.9436 1.22746,3.8379 l 0.66397,-0.9937 c 0.38538,0.3182 0.87033,0.5127 1.39059,0.5356 0.63577,0.028 1.24165,-0.2034 1.69315,-0.6185 l 0.65557,1.064 1.25305,2.0362 5.96845,1.833 -2.00565,-3.9181 0.002,0 -0.003,-0.01 -0.62882,-0.1849 -0.002,0 -10e-4,0 -0.56541,-1.1052 -1.19957,-0.3523 -0.81105,-1.5846 0.001,0 -2.33955,-4.5714 0.22425,0.066 2.33993,4.5718 0.9738,0.2861 -2.33956,-4.5714 0.24259,0.072 2.83543,5.5398 0.38738,0.1138 -3.13379,-6.1224 -0.003,0 -3.30028,-6.4464 z m 0.82939,8.742 c 1.1527,0.3972 1.94821,1.4609 2.00374,2.6788 0.0289,0.635 -0.15035,1.2435 -0.4825,1.7539 l -0.37554,-0.6101 c 0.52195,-1.0948 0.12155,-2.4259 -0.94246,-3.0402 l -0.14632,0.2541 c -0.11251,-0.065 -0.23153,-0.1209 -0.35758,-0.1643 l 0.30066,-0.8722 z m -0.96998,0.078 0,0.3942 c -0.83707,0 -1.60966,0.4464 -2.02819,1.1713 l -0.34154,-0.1975 c 0.4887,-0.8464 1.39234,-1.368 2.36973,-1.368 z m -0.006,1.0845 a 1.652107,1.652107 0 0 1 0.006,0 l 0,0.8844 0,0.2346 0,0.199 c 0.13564,0 0.25678,0.081 0.30868,0.2063 0.0519,0.1253 0.0233,0.2678 -0.0726,0.3637 -0.0959,0.096 -0.23837,0.1241 -0.36369,0.072 -0.10642,-0.044 -0.17718,-0.1387 -0.19713,-0.2491 l 0.1383,-0.207 -0.5379,0 -0.67848,1.0154 a 1.652107,1.652107 0 0 1 -0.24909,-0.8676 1.652107,1.652107 0 0 1 0.43896,-1.1178 l 7.8e-4,0 c 0.0826,-0.09 0.17483,-0.1699 0.27506,-0.2391 l -3.9e-4,0 a 1.652107,1.652107 0 0 1 0.93101,-0.295 z m -2.74298,0.5116 0.5826,0.2414 c -0.22361,0.5394 -0.24429,1.1543 -0.0313,1.7226 0.0445,0.1188 0.0989,0.2319 0.16083,0.3396 l -0.3805,0.5696 c -0.59162,-0.826 -0.72993,-1.9127 -0.3316,-2.8732 z m 3.4887,1.3382 0.85422,0.2289 a 1.652107,1.652107 0 0 1 -0.37821,0.6899 l 0.008,0.014 -0.001,0 0.15549,0.2525 c -0.38033,0.379 -0.90746,0.5927 -1.4639,0.5681 -0.44748,-0.02 -0.86244,-0.1914 -1.18774,-0.4714 l 0.40305,-0.6029 -7.9e-4,0 0.2701,-0.4038 c 0.0797,0.1016 0.18379,0.1847 0.30791,0.2361 0.28621,0.1186 0.61721,0.053 0.83627,-0.1662 0.0973,-0.097 0.16228,-0.2171 0.19636,-0.3449 z"
       style="opacity:1;fill:#ffffff;fill-opacity:1;fill-rule:evenodd;stroke:none;stroke-width:1px;stroke-linecap:butt;stroke-linejoin:miter;stroke-opacity:1;image-rendering:auto" />
  </g>
</svg>
